<svg xmlns="http://www.w3.org/2000/svg" viewBox="0 0 32 32">
  <defs>
    <linearGradient id="g" x1="0%" y1="0%" x2="100%" y2="100%">
      <stop offset="0%" stop-color="#a855f7"/>
      <stop offset="100%" stop-color="#7c3aed"/>
    </linearGradient>
  </defs>
  <circle cx="6" cy="8" r="3" fill="#a855f7" opacity="0.9"/>
  <circle cx="26" cy="8" r="3" fill="#a855f7" opacity="0.9"/>
  <circle cx="16" cy="6" r="3" fill="#a855f7" opacity="0.9"/>
  <circle cx="4" cy="22" r="3" fill="#a855f7" opacity="0.9"/>
  <circle cx="28" cy="22" r="3" fill="#a855f7" opacity="0.9"/>
  <circle cx="16" cy="28" r="3" fill="#a855f7" opacity="0.9"/>
  <circle cx="10" cy="16" r="2.5" fill="#c084fc" opacity="0.7"/>
  <circle cx="22" cy="16" r="2.5" fill="#c084fc" opacity="0.7"/>
  <line x1="6" y1="8" x2="16" y2="6" stroke="url(#g)" stroke-width="1" opacity="0.5"/>
  <line x1="16" y1="6" x2="26" y2="8" stroke="url(#g)" stroke-width="1" opacity="0.5"/>
  <line x1="6" y1="8" x2="4" y2="22" stroke="url(#g)" stroke-width="1" opacity="0.5"/>
  <line x1="26" y1="8" x2="28" y2="22" stroke="url(#g)" stroke-width="1" opacity="0.5"/>
  <line x1="4" y1="22" x2="16" y2="28" stroke="url(#g)" stroke-width="1" opacity="0.5"/>
  <line x1="28" y1="22" x2="16" y2="28" stroke="url(#g)" stroke-width="1" opacity="0.5"/>
  <line x1="6" y1="8" x2="10" y2="16" stroke="url(#g)" stroke-width="1" opacity="0.4"/>
  <line x1="26" y1="8" x2="22" y2="16" stroke="url(#g)" stroke-width="1" opacity="0.4"/>
  <line x1="10" y1="16" x2="22" y2="16" stroke="url(#g)" stroke-width="1" opacity="0.4"/>
  <line x1="10" y1="16" x2="4" y2="22" stroke="url(#g)" stroke-width="1" opacity="0.4"/>
  <line x1="22" y1="16" x2="28" y2="22" stroke="url(#g)" stroke-width="1" opacity="0.4"/>
  <line x1="10" y1="16" x2="16" y2="28" stroke="url(#g)" stroke-width="1" opacity="0.4"/>
  <line x1="22" y1="16" x2="16" y2="28" stroke="url(#g)" stroke-width="1" opacity="0.4"/>
  <line x1="16" y1="6" x2="10" y2="16" stroke="url(#g)" stroke-width="1" opacity="0.4"/>
  <line x1="16" y1="6" x2="22" y2="16" stroke="url(#g)" stroke-width="1" opacity="0.4"/>
  <line x1="6" y1="8" x2="26" y2="8" stroke="url(#g)" stroke-width="0.5" opacity="0.3"/>
  <line x1="4" y1="22" x2="28" y2="22" stroke="url(#g)" stroke-width="0.5" opacity="0.3"/>
</svg>
